<svg width="375" height="812" viewBox="0 0 375 812" fill="none" xmlns="http://www.w3.org/2000/svg">
<path d="M449.514 856.169C462.083 813.964 461.374 721.234 405.163 685.94C348.953 650.647 289.808 653.497 216.474 692.743C142.356 732.41 47.165 728.838 64.211 660.425C87.429 567.241 98.056 530.621 32.4099 555.502C-33.2362 580.384 -6.44461 519.262 -80.5082 532.056C-139.759 542.291 -196.935 633.317 -251.649 531.222" stroke="#3DA0A7"/>
<path d="M195.271 908.711C253.657 849.163 319.952 893.352 332.781 828.644C344.527 769.4 255.469 708.131 204.531 765.265C168.026 806.211 115.595 867.257 135.656 901.68" stroke="#3DA0A7" stroke-linecap="round"/>
<path d="M502.637 -110.177C490.218 -106.724 463.389 -85.817 455.423 -29.8112C445.465 40.1962 423.691 183.806 334.473 151.38C245.255 118.955 193.497 60.3343 220.541 34.452C247.585 8.56976 305.262 64.5545 241.8 141.082C178.338 217.609 42.2009 207.63 -13.9634 104.603" stroke="#3DA0A7"/>
<path d="M118.922 -79.5327C76.9515 -7.46804 1.83297 -34.018 5.29143 31.8583C8.45791 92.1728 109.837 129.688 145.181 61.7922C170.509 13.1347 206.339 -58.9208 178.436 -87.3613" stroke="#3DA0A7" stroke-linecap="round"/>
<path d="M180.3 389.199C177.769 388.774 175.84 386.572 175.84 383.92C175.84 380.965 178.236 378.568 181.192 378.568C181.559 378.568 181.918 378.605 182.264 378.676" stroke="white" stroke-width="2" stroke-linecap="round"/>
<path d="M194.753 389.199C197.284 388.774 199.213 386.572 199.213 383.92C199.213 380.965 196.817 378.568 193.861 378.568C193.493 378.568 193.135 378.605 192.788 378.676" stroke="white" stroke-width="2" stroke-linecap="round"/>
<path d="M182.253 381.69C182.143 381.262 182.084 380.814 182.084 380.352C182.084 377.396 184.48 375 187.436 375C190.392 375 192.788 377.396 192.788 380.352C192.788 380.814 192.73 381.262 192.62 381.69" stroke="white" stroke-width="2" stroke-linecap="round"/>
<path d="M187.401 384.672V387.475" stroke="white" stroke-width="2" stroke-linecap="round"/>
<path d="M182.444 384.907C182.22 385.408 182.631 387.316 183.117 387.629" stroke="white" stroke-width="2" stroke-linecap="round"/>
<path d="M192.726 384.907C192.95 385.408 192.539 387.316 192.053 387.629" stroke="white" stroke-width="2" stroke-linecap="round"/>
<path d="M134.638 421V397.108H125.178V390.2H152.766V397.108H143.35V421H134.638ZM169.019 421V416.556L168.447 415.456V407.272C168.447 405.952 168.037 404.94 167.215 404.236C166.423 403.503 165.147 403.136 163.387 403.136C162.243 403.136 161.085 403.327 159.911 403.708C158.738 404.06 157.741 404.559 156.919 405.204L154.103 399.528C155.453 398.648 157.066 397.973 158.943 397.504C160.85 397.005 162.742 396.756 164.619 396.756C168.491 396.756 171.483 397.651 173.595 399.44C175.737 401.2 176.807 403.972 176.807 407.756V421H169.019ZM161.979 421.396C160.073 421.396 158.459 421.073 157.139 420.428C155.819 419.783 154.807 418.903 154.103 417.788C153.429 416.673 153.091 415.427 153.091 414.048C153.091 412.581 153.458 411.32 154.191 410.264C154.954 409.179 156.113 408.357 157.667 407.8C159.222 407.213 161.231 406.92 163.695 406.92H169.327V411.276H164.839C163.49 411.276 162.537 411.496 161.979 411.936C161.451 412.376 161.187 412.963 161.187 413.696C161.187 414.429 161.466 415.016 162.023 415.456C162.581 415.896 163.343 416.116 164.311 416.116C165.221 416.116 166.042 415.896 166.775 415.456C167.538 414.987 168.095 414.283 168.447 413.344L169.591 416.424C169.151 418.067 168.286 419.313 166.995 420.164C165.734 420.985 164.062 421.396 161.979 421.396ZM190.752 421.396C188.728 421.396 186.748 421.161 184.812 420.692C182.906 420.223 181.366 419.636 180.192 418.932L182.7 413.212C183.815 413.887 185.12 414.429 186.616 414.84C188.112 415.221 189.579 415.412 191.016 415.412C192.424 415.412 193.392 415.265 193.92 414.972C194.478 414.679 194.756 414.283 194.756 413.784C194.756 413.315 194.492 412.977 193.964 412.772C193.466 412.537 192.791 412.361 191.94 412.244C191.119 412.127 190.21 411.995 189.212 411.848C188.215 411.701 187.203 411.511 186.176 411.276C185.179 411.012 184.255 410.631 183.404 410.132C182.583 409.604 181.923 408.9 181.424 408.02C180.926 407.14 180.676 406.025 180.676 404.676C180.676 403.151 181.116 401.801 181.996 400.628C182.906 399.425 184.226 398.487 185.956 397.812C187.687 397.108 189.799 396.756 192.292 396.756C193.964 396.756 195.651 396.932 197.352 397.284C199.083 397.607 200.535 398.105 201.708 398.78L199.2 404.456C198.027 403.781 196.854 403.327 195.68 403.092C194.507 402.828 193.392 402.696 192.336 402.696C190.928 402.696 189.931 402.857 189.344 403.18C188.787 403.503 188.508 403.899 188.508 404.368C188.508 404.837 188.758 405.204 189.256 405.468C189.755 405.703 190.415 405.893 191.236 406.04C192.087 406.157 193.011 406.289 194.008 406.436C195.006 406.553 196.003 406.744 197 407.008C198.027 407.272 198.951 407.668 199.772 408.196C200.623 408.695 201.298 409.384 201.796 410.264C202.295 411.115 202.544 412.215 202.544 413.564C202.544 415.031 202.09 416.351 201.18 417.524C200.3 418.697 198.98 419.636 197.22 420.34C195.49 421.044 193.334 421.396 190.752 421.396ZM216.795 421.396C213.744 421.396 211.368 420.648 209.667 419.152C207.966 417.627 207.115 415.339 207.115 412.288V391.828H215.475V412.2C215.475 413.051 215.71 413.725 216.179 414.224C216.648 414.693 217.25 414.928 217.983 414.928C218.98 414.928 219.831 414.679 220.535 414.18L222.603 420.032C221.899 420.501 221.034 420.839 220.007 421.044C218.98 421.279 217.91 421.396 216.795 421.396ZM203.639 404.28V398.032H220.931V404.28H203.639ZM229.489 429.932C228.228 429.932 226.952 429.727 225.661 429.316C224.4 428.935 223.373 428.421 222.581 427.776L225.485 421.924C225.984 422.364 226.556 422.701 227.201 422.936C227.876 423.2 228.536 423.332 229.181 423.332C230.09 423.332 230.809 423.127 231.337 422.716C231.865 422.305 232.32 421.66 232.701 420.78L233.801 418.008L234.461 417.172L242.557 397.152H250.521L240.225 421.968C239.404 424.021 238.45 425.62 237.365 426.764C236.309 427.937 235.121 428.759 233.801 429.228C232.51 429.697 231.073 429.932 229.489 429.932ZM232.745 422.012L222.229 397.152H230.809L238.553 416.424L232.745 422.012Z" fill="white"/>
</svg>
